# xmcd
#
# Track frame offsets:
#	150
#	16859
#	36604
#	54750
#	71084
#	89080
#	108353
#	127955
#	151713
#	177936
#	192498
#
# Disc length: 2834 seconds
#
# Revision: 0
# Processed by: cddbd v1.5.1PL0 Copyright (c) Steve Scherf et al.
# Submitted via: dBpowerAMP V4.0
#
DISCID=8f0b100b
DTITLE=Nightrain - Home Blues
DYEAR=2004
DGENRE=Blues
TTITLE0=Whole Lotta Woman
TTITLE1=White Mountain Prison Blues
TTITLE2=That's When I'll Stop Lovin' You
TTITLE3=Living On The Outside Plan
TTITLE4=Last Night Baby And The Night Before
TTITLE5=Key In The Lock
TTITLE6=Junior's Place
TTITLE7=I'll Follow The Blues
TTITLE8=Gypsy Wind
TTITLE9=Chicken Feets
TTITLE10=Big Wolf
EXTD=
EXTT0=
EXTT1=
EXTT2=
EXTT3=
EXTT4=
EXTT5=
EXTT6=
EXTT7=
EXTT8=
EXTT9=
EXTT10=
PLAYORDER=
